HIERARCHY
ROOT pelvis
{
  OFFSET 0 100 0
  CHANNELS 6 Xposition Yposition Zposition Zrotation Xrotation Yrotation
  JOINT pelvis_right_femur
  {
    OFFSET -10.78128 -3.44521 -0.5502486
    CHANNELS 3 Zrotation Xrotation Yrotation
    JOINT right_femur_tibia
    {
      OFFSET -0.8047443 -44.0398 -0.1307829
      CHANNELS 3 Zrotation Xrotation Yrotation
      JOINT right_tibia_foot
      {
        OFFSET 3.006224 -47.83518 -5
        CHANNELS 3 Zrotation Xrotation Yrotation
        End Site
        {
          OFFSET 0 -5 15
        }
      }
    }
  }
  JOINT pelvis_left_femur
  {
    OFFSET 10.78128 -3.44521 -0.5502486
    CHANNELS 3 Zrotation Xrotation Yrotation
    JOINT left_femur_tibia
    {
      OFFSET 0.8047443 -44.0398 -0.1307829
      CHANNELS 3 Zrotation Xrotation Yrotation
      JOINT left_tibia_foot
      {
        OFFSET -4.370144 -48.10324 -4.275266
        CHANNELS 3 Zrotation Xrotation Yrotation
        End Site
        {
          OFFSET 0 -5 15
        }
      }
    }
  }
  JOINT pelvis_spine1
  {
    OFFSET 0 6.468898 -3.129235
    CHANNELS 3 Zrotation Xrotation Yrotation
    JOINT spine1
    {
      OFFSET 0 23.15396 4.99043
      CHANNELS 3 Zrotation Xrotation Yrotation
      JOINT spine2
      {
        OFFSET 0 20.79997 -5.064912
        CHANNELS 3 Zrotation Xrotation Yrotation
        JOINT neck
        {
          OFFSET 0 14.38658 9.616178
          CHANNELS 3 Zrotation Xrotation Yrotation
          End Site
          {
            OFFSET 0 20 0
          }
        }
      }
      JOINT right_manubrium
      {
        OFFSET -5.722621 16.35077 3.967754
        CHANNELS 3 Zrotation Xrotation Yrotation
        JOINT right_clavicle
        {
          OFFSET -13.16364 1.694482 -4.693211
          CHANNELS 3 Zrotation Xrotation Yrotation
          JOINT right_humerus
          {
            OFFSET -28.5034 -0.3100689 -2.792744
            CHANNELS 3 Zrotation Xrotation Yrotation
            JOINT right_radius
            {
              OFFSET -25.15693 0.02248979 -1.271978
              CHANNELS 3 Zrotation Xrotation Yrotation
              End Site
              {
                OFFSET -15 0 0
              }
            }
          }
        }
      }
      JOINT left_manubrium
      {
        OFFSET 5.722621 16.35077 3.967754
        CHANNELS 3 Zrotation Xrotation Yrotation
        JOINT left_clavicle
        {
          OFFSET 13.16364 1.694482 -4.693211
          CHANNELS 3 Zrotation Xrotation Yrotation
          JOINT left_humerus
          {
            OFFSET 29.39168 -1.063119 -2.237045
            CHANNELS 3 Zrotation Xrotation Yrotation
            JOINT left_radius
            {
              OFFSET 24.59957 -0.9528479 0.9047498
              CHANNELS 3 Zrotation Xrotation Yrotation
              End Site
              {
                OFFSET 15 -0 -0
              }
            }
          }
        }
      }
    }
  }
}
MOTION
Frames: 21
Frame Time: 0.0416666666667
0 103.5113 0 1.517996 -0.8473684 0.05857707 4.660638 -15.43116 11.5227 -0 35.21551 -0 -2.708981 -17.94723 -3.918841 -7.302015 9.498634 -19.99203 -0 4.124961 -0 19.07199 -9.713992 27.55788 -2.785988 -2.097793 6.114766 2.195195 10.01442 -6.325661 1.223213 21.5622 7.367702 3.083791 -24.5796 10.17126 5.039075 -20.39148 11.56419 85.61922 39.37912 -15.97174 -0 0 15.1712 -6.849779 7.520751 4.966437 5.267006 -19.86019 -1.755126 -91.82217 20.71316 22.72835 0 0 -18.02925 14.33414 11.67467 -1.855963
0.5405408 103.372 1.880373 1.25499 0.03736082 0.06424297 5.351806 -18.18639 12.01681 -0 34.89325 -0 -2.806476 -17.63313 -3.91434 -7.358558 10.005 -20.2532 -0 4.677922 -0 19.44594 -10.42996 28.05861 -2.842367 -1.954502 5.907387 2.357911 9.976611 -6.460724 1.229657 21.55167 7.489559 3.088848 -24.77759 10.34937 5.016466 -20.30108 11.5822 85.96806 39.75934 -16.28282 -0 0 14.69364 -6.261332 7.281054 4.852776 5.213362 -19.89045 -1.906561 -91.19597 20.58563 21.9076 0 0 -19.21681 14.76856 11.27327 -2.338286
0.9579372 103.1427 3.830626 0.8897684 0.2582979 0.05702411 5.504226 -20.8392 10.74549 -0 33.91766 -0 -4.062945 -15.88838 -3.541891 -7.230824 10.97872 -20.82478 -0 5.444649 -0 16.99695 -12.82727 27.92107 -2.706171 -2.005227 5.655701 2.392371 10.12992 -6.730617 1.216748 21.38572 7.429053 3.105493 -24.81887 10.18151 5.067854 -19.99945 11.57211 86.37618 39.06052 -17.19377 -0 0 14.22186 -6.831106 7.621898 5.096165 5.437146 -20.17613 -1.995602 -90.78999 20.84965 21.09707 0 0 -19.70363 14.29759 11.07876 -1.84889
1.310405 102.8646 5.930092 0.5547379 0.6557051 0.03775323 5.934661 -23.26264 10.13803 -0 32.48527 -0 -4.731001 -14.44289 -3.237284 -7.05035 11.47898 -20.73687 -0 6.138645 -0 16.01616 -14.13852 27.60539 -2.647105 -2.018732 5.482034 2.470653 10.19151 -6.914261 1.214807 21.29514 7.416408 3.100319 -24.92091 10.14811 5.09419 -19.83696 11.57151 86.66111 38.76895 -17.76214 -0 0 13.88475 -6.921107 7.742732 5.153365 5.546538 -20.33967 -2.056003 -90.49171 20.98548 20.54124 0 0 -20.21807 14.17398 10.94168 -1.713779
1.59881 102.5568 8.195185 0.1983539 1.405779 0.03657729 6.492458 -26.03681 9.874594 -0 30.73143 -0 -5.069669 -13.20695 -3.046152 -6.879935 12.00394 -20.58868 -0 6.736052 -0 14.89919 -15.67992 27.1428 -2.557716 -2.084795 5.265499 2.608988 10.26222 -7.179419 1.217858 21.1678 7.371449 3.066279 -25.11969 10.11143 5.144018 -19.64772 11.56989 87.00363 38.29548 -18.56017 -0 0 13.49481 -6.955247 7.915142 5.165247 5.71141 -20.57298 -2.089292 -90.24441 21.24945 19.95066 0 0 -20.78969 14.00913 10.89369 -1.504878
1.844224 102.2035 10.69479 -0.1158125 2.080115 0.07362632 7.041844 -28.42393 9.606405 -0 28.61522 -0 -5.353529 -11.86233 -2.827576 -6.695577 12.4221 -20.16898 -0 7.48927 -0 14.06553 -16.82182 26.47841 -2.479232 -2.151076 5.076219 2.742786 10.31765 -7.418384 1.220414 21.05503 7.329391 3.03109 -25.31365 10.08415 5.189449 -19.49131 11.568 87.29644 37.87087 -19.26607 -0 0 13.16226 -6.951389 8.060938 5.156517 5.857795 -20.78118 -2.110063 -90.0561 21.49448 19.46243 0 0 -21.27808 13.87276 10.87575 -1.323869
2.056611 101.8168 13.49608 -0.4061812 2.721746 0.1677437 7.571516 -30.49716 9.316124 -0 26.24341 -0 -5.642603 -10.42224 -2.595395 -6.500696 12.8237 -19.57766 -0 8.527769 -0 13.25339 -17.70338 25.58285 -2.398041 -2.232749 4.900017 2.880715 10.36613 -7.65419 1.222771 20.94415 7.276431 2.989763 -25.51868 10.05165 5.238607 -19.35012 11.56435 87.55506 37.41522 -19.95268 -0 0 12.87085 -6.93962 8.208112 5.133003 6.006705 -20.98677 -2.11256 -89.94138 21.76584 19.06251 0 0 -21.67087 13.72022 10.91256 -1.117865
2.244369 101.4128 16.65307 -0.667078 3.213277 0.3280139 8.013672 -32.00564 8.9252 -0 23.89109 -0 -6.031842 -8.937392 -2.339947 -6.288227 13.19348 -18.85983 -0 10.00375 -0 12.40155 -18.19192 24.4456 -2.322506 -2.314427 4.750837 3.003028 10.4054 -7.861328 1.223508 20.84663 7.220455 2.950832 -25.70311 10.0123 5.284843 -19.23073 11.55906 87.76038 36.97892 -20.55025 -0 0 12.63884 -6.943282 8.343246 5.110085 6.141642 -21.16816 -2.104116 -89.88922 22.02749 18.76615 0 0 -21.94055 13.55736 10.98111 -0.90231
2.412493 101.0284 20.20503 -0.920814 3.536465 0.5543741 8.375359 -32.87425 8.460109 -0 21.80113 -0 -6.560099 -7.523199 -2.081249 -6.03965 13.49563 -18.06441 -0 12.09682 -0 11.41761 -18.22093 23.05328 -2.252862 -2.392804 4.630679 3.103824 10.4368 -8.035139 1.222321 20.76428 7.161203 2.916276 -25.85748 9.962147 5.327356 -19.13043 11.55203 87.91037 36.56516 -21.04968 -0 0 12.46805 -6.978015 8.467611 5.095192 6.2603 -21.32181 -2.086865 -89.89603 22.27524 18.57295 0 0 -22.07763 13.37595 11.0769 -0.6710591
2.565826 100.7119 24.16428 -1.181622 3.652227 0.8281762 8.662543 -33.01127 7.950551 -0 20.20886 -0 -7.23717 -6.321443 -1.840012 -5.737641 13.63535 -17.22682 -0 14.94524 -0 10.28319 -17.70672 21.43739 -2.19291 -2.45962 4.546624 3.171966 10.46129 -8.163174 1.218719 20.70216 7.102438 2.890283 -25.96334 9.899749 5.362647 -19.05062 11.54391 87.99931 36.19974 -21.41979 -0 0 12.36507 -7.060291 8.577597 5.098435 6.354208 -21.4379 -2.065719 -89.95003 22.48916 18.4832 0 0 -22.07681 13.17697 11.18394 -0.4300295
2.710588 100.5208 28.51498 -1.453429 3.542152 1.111126 8.894177 -32.38145 7.443696 -0 19.22924 -0 -8.034752 -5.457568 -1.638991 -5.372492 13.47708 -16.35759 -0 18.65756 -0 9.060364 -16.59617 19.67059 -2.145295 -2.509016 4.504731 3.198554 10.48072 -8.236155 1.212399 20.6635 7.046924 2.875829 -26.00581 9.823885 5.387956 -18.99258 11.53555 88.02361 35.90165 -21.63783 -0 0 12.33507 -7.205165 8.672544 5.128626 6.416989 -21.50979 -2.04456 -90.04055 22.65313 18.49554 0 0 -21.9372 12.96057 11.28838 -0.1827257
2.855134 100.5086 33.21041 -1.71469 3.189553 1.348047 9.069481 -30.98608 6.964864 -0 18.82585 -0 -8.893906 -4.998776 -1.493909 -4.952126 12.86462 -15.44838 -0 23.23385 -0 7.892306 -14.90852 17.87817 -2.112956 -2.53567 4.511859 3.174933 10.4972 -8.244653 1.20315 20.6512 6.99805 2.875729 -25.97044 9.734564 5.400297 -18.95936 11.52811 87.97899 35.69122 -21.67948 -0 0 12.38434 -7.42635 8.752091 5.19427 6.442237 -21.53112 -2.027 -90.15652 22.74941 18.6089 0 0 -21.66081 12.72993 11.37516 0.06459219
3.008465 100.7138 38.17662 -1.92047 2.584314 1.479087 9.165263 -28.85788 6.511567 -0 18.81224 -0 -9.74477 -4.930866 -1.409257 -4.498752 11.65329 -14.47884 -0 28.53729 -0 6.957626 -12.75619 16.20765 -2.098098 -2.536385 4.57384 3.094508 10.51269 -8.181487 1.190872 20.667 6.958625 2.892022 -25.84641 9.632249 5.397299 -18.95461 11.52262 87.86091 35.58281 -21.525 -0 0 12.51891 -7.735857 8.817397 5.302728 6.4256 -21.49755 -2.015332 -90.28973 22.76396 18.82295 0 0 -21.2499 12.48835 11.43226 0.3066614
3.177391 101.1475 43.3195 -2.014887 1.726592 1.457749 9.143734 -26.05486 6.058235 -0 18.91212 -0 -10.52398 -5.167498 -1.376699 -4.03733 9.745804 -13.43274 -0 34.24206 -0 6.40566 -10.34575 14.79652 -2.102072 -2.510112 4.694972 2.952825 10.52848 -8.041754 1.175474 20.71161 6.930608 2.926072 -25.62671 9.5173 5.377332 -18.98223 11.51975 87.66382 35.58315 -21.15918 -0 0 12.74463 -8.14495 8.871018 5.460522 6.365099 -21.4066 -2.010286 -90.43641 22.68783 19.13911 0 0 -20.7036 12.23756 11.4521 0.5407865
3.364249 101.7854 48.53612 -1.954748 0.6368745 1.268518 8.975697 -22.65856 5.577771 -0 18.85477 -0 -11.18583 -5.593633 -1.379008 -3.576684 7.117817 -12.30888 -0 39.82334 -0 6.299891 -7.934795 13.74173 -2.125146 -2.457925 4.877713 2.747367 10.54483 -7.822784 1.156734 20.78496 6.914572 2.97866 -25.30785 9.388853 5.339589 -19.04561 11.51954 87.38035 35.68931 -20.57112 -0 0 13.06741 -8.666867 8.917483 5.674383 6.261239 -21.25737 -2.010882 -90.5986 22.51872 19.56181 0 0 -20.014 11.97444 11.43287 0.7700777
3.567583 102.5636 53.72933 -1.73277 -0.6323809 0.9352676 8.662782 -18.78426 5.061988 -0 18.46333 -0 -11.69916 -6.118267 -1.396361 -3.094641 3.833173 -11.12164 -0 44.58339 -0 6.596655 -5.769427 13.08666 -2.166673 -2.382698 5.12321 2.476959 10.56076 -7.523317 1.134244 20.88658 6.909632 3.05005 -24.88887 9.244442 5.283871 -19.14793 11.52142 87.00019 35.88927 -19.75174 -0 0 13.49437 -9.318872 8.963652 5.952332 6.116405 -21.04978 -2.014404 -90.78463 22.26059 20.09972 0 0 -19.16409 11.68968 11.37851 1.004692
3.786689 103.3818 58.82448 -1.390151 -1.991845 0.51395 8.248097 -14.59122 4.529744 -0 17.70326 -0 -12.03661 -6.710286 -1.411514 -2.534352 0.04783224 -9.888646 -0 47.74332 -0 7.165259 -4.020349 12.81918 -2.225452 -2.289129 5.431822 2.141994 10.57378 -7.143155 1.107578 21.01576 6.913791 3.139672 -24.37179 9.081091 5.210351 -19.29313 11.52437 86.50976 36.16427 -18.69227 -0 0 14.0345 -10.1207 9.018798 6.303441 5.934368 -20.78413 -2.016157 -91.00872 21.92284 20.76585 0 0 -18.13054 11.36987 11.29835 1.259788
4.028026 104.1163 63.78487 -1.012351 -3.324843 0.0702557 7.809848 -10.28091 4.019801 -0 16.67715 -0 -12.16662 -7.401727 -1.412966 -1.81691 -3.993852 -8.616612 -0 48.60434 -0 7.835746 -2.742162 12.87588 -2.300058 -2.184301 5.802589 1.74632 10.57965 -6.68442 1.076664 21.17108 6.924817 3.245342 -23.76484 8.898229 5.119573 -19.48718 11.52719 85.8947 36.49225 -17.38715 -0 0 14.69721 -11.08684 9.093886 6.73491 5.720577 -20.46187 -2.009093 -91.28904 21.51957 21.57477 0 0 -16.89344 11.0041 11.20653 1.549316
4.309298 104.6426 68.61994 -0.7071692 -4.515308 -0.3481477 7.437948 -6.069731 3.57342 -0 15.57487 -0 -12.05946 -8.260051 -1.39747 -0.8735387 -7.974347 -7.302663 -0 46.75763 -0 8.45302 -1.869983 13.15624 -2.388761 -2.078218 6.231033 1.300291 10.57255 -6.154816 1.042049 21.34893 6.941384 3.362486 -23.08734 8.70095 5.012787 -19.73797 11.52864 85.14676 36.85126 -15.84408 -0 0 15.48698 -12.21482 9.199974 7.247009 5.483312 -20.08819 -1.984176 -91.64299 21.06901 22.5351 0 0 -15.45244 10.59215 11.12011 1.878176
4.657543 104.8639 73.3808 -0.5682113 -5.485478 -0.7303177 7.197593 -2.138885 3.214452 -0 14.60367 -0 -11.70924 -9.340802 -1.371762 0.3029677 -11.53711 -5.964398 -0 42.27177 -0 8.914513 -1.260384 13.55288 -2.488867 -1.983074 6.705967 0.8227814 10.54665 -5.571453 1.004791 21.54181 6.963823 3.484248 -22.37209 8.50092 4.892529 -20.05229 11.52747 84.27407 37.22164 -14.09827 -0 0 16.39496 -13.47605 9.345773 7.828479 5.234758 -19.67545 -1.932618 -92.07913 20.59211 23.6383 0 0 -13.84227 10.14919 11.05465 2.237341
5.101026 104.7361 78.14247 -0.6332928 -6.222949 -1.101687 7.090606 1.415405 2.933792 -0 13.93221 -0 -11.16117 -10.63552 -1.350534 1.603091 -14.34378 -4.691651 -0 35.75354 -0 9.177199 -0.7676937 13.99212 -2.595944 -1.910407 7.207144 0.3400589 10.49888 -4.962484 0.9660846 21.73776 6.993717 3.60287 -21.66155 8.313358 4.763222 -20.42976 11.5226 83.30962 37.58627 -12.22293 -0 0 17.391 -14.81452 9.534035 8.455014 4.990483 -19.24485 -1.849995 -92.58846 20.11006 24.84799 0 0 -12.13836 9.703207 11.01826 2.605041
